# xmcd
#
# Track frame offsets:
#	150
#	12597
#	25145
#	39010
#	55320
#	69000
#	82280
#	98825
#	111882
#	122887
#
# Disc length: 1784 seconds
#
# Revision: 1
# Processed by: cddbd v1.5.2PL0 Copyright (c) Steve Scherf et al.
# Submitted via: EZCDAudioConverter 6.0.5.1
#
DISCID=7c06f60a
DTITLE=Charlie Rich - Greatest Hits
DYEAR=1976
DGENRE=Country
TTITLE0=The Most Beautiful Girl
TTITLE1=A Very Special Love Song
TTITLE2=Since I Fell For You
TTITLE3=My Elusive Dreams
TTITLE4=Every Time You Touch Me (I Get High)
TTITLE5=Behind Closed Doors
TTITLE6=Life Has Its Little Ups And Downs
TTITLE7=All Over Me
TTITLE8=I Love My Friend
TTITLE9=America, The Beautiful (1976)
EXTD=
EXTT0=
EXTT1=
EXTT2=
EXTT3=
EXTT4=
EXTT5=
EXTT6=
EXTT7=
EXTT8=
EXTT9=
PLAYORDER=
